#N canvas 1013 356 280 362 12;
#X obj 64 27 inlet;
#X obj 64 300 outlet;
#X obj 151 253 abs;
#X obj 151 218 - \$1;
#X obj 203 30 inlet;
#X obj 117 77 - 1;
#X obj 117 109 abs;
#X obj 64 147 spigot 1;
#X obj 150 150 spigot 0;
#X connect 0 0 7 0;
#X connect 0 0 8 0;
#X connect 2 0 1 0;
#X connect 3 0 2 0;
#X connect 4 0 5 0;
#X connect 4 0 8 1;
#X connect 5 0 6 0;
#X connect 6 0 7 1;
#X connect 7 0 1 0;
#X connect 8 0 3 0;
