#N canvas 163 25 1187 776 12;
#X obj 360 809 route ports;
#X obj 360 846 print portlist;
#X msg 312 736 ports;
#X floatatom 265 120 5 0 0 0 - - -;
#X obj 265 83 ctlin 16 1;
#X obj 351 83 ctlin 17 1;
#X obj 438 83 ctlin 18 1;
#X obj 525 83 ctlin 19 1;
#X obj 612 83 ctlin 20 1;
#X obj 265 644 pack 0 0 0 0 0, f 50;
#X obj 265 773 comport 4 9600;
#X obj 816 83 ctlin;
#X floatatom 816 149 5 0 0 0 - - -;
#X floatatom 946 149 5 0 0 0 - - -;
#X floatatom 1058 149 5 0 0 0 - - -;
#X text 864 148 controller;
#X text 771 148 value;
#X text 994 148 channel;
#X msg 284 185 set \$1;
#X msg 284 245 63;
#X floatatom 351 120 5 0 0 0 - - -;
#X msg 370 185 set \$1;
#X msg 370 245 63;
#X floatatom 438 120 5 0 0 0 - - -;
#X msg 457 185 set \$1;
#X msg 457 245 63;
#X obj 230 185 bng 15 250 50 0 empty empty empty 17 7 0 10 -262144
-1 -1;
#X floatatom 525 120 5 0 0 0 - - -;
#X msg 544 185 set \$1;
#X msg 544 245 63;
#X floatatom 612 120 5 0 0 0 - - -;
#X msg 631 185 set \$1;
#X msg 631 245 63;
#X msg 284 282 set \$1;
#X msg 284 361 63;
#X msg 370 282 set \$1;
#X msg 370 361 63;
#X msg 457 282 set \$1;
#X msg 457 361 63;
#X msg 544 282 set \$1;
#X msg 544 361 63;
#X msg 631 282 set \$1;
#X msg 631 361 63;
#X obj 232 310 bng 15 250 50 0 empty empty empty 17 7 0 10 -262144
-1 -1;
#X text 14 184 load current value on startup;
#X text 84 310 recall start values;
#X obj 265 482 invert 127;
#X obj 351 482 invert 127;
#X obj 438 482 invert 127;
#X obj 525 482 invert 127;
#X obj 612 482 invert 127;
#X text 125 460 invert values;
#X obj 332 461 tgl 15 0 empty empty empty 17 7 0 10 -262144 -1 -1 0
1;
#X obj 418 461 tgl 15 0 empty empty empty 17 7 0 10 -262144 -1 -1 1
1;
#X obj 505 461 tgl 15 0 empty empty empty 17 7 0 10 -262144 -1 -1 0
1;
#X obj 592 461 tgl 15 0 empty empty empty 17 7 0 10 -262144 -1 -1 0
1;
#X obj 679 461 tgl 15 0 empty empty empty 17 7 0 10 -262144 -1 -1 0
1;
#X msg 396 704 set \$1 \$2 \$3 \$4 \$5;
#X msg 396 741 63 63 63 63 63;
#X obj 287 516 bng 15 250 50 0 empty empty empty 17 7 0 10 -262144
-1 -1;
#X obj 191 282 loadbang;
#X msg 701 516 set \$1;
#X msg 701 568 0;
#X obj 770 533 loadbang;
#X msg 624 515 set \$1;
#X msg 624 567 0;
#X msg 538 515 set \$1;
#X msg 538 567 0;
#X msg 447 515 set \$1;
#X msg 447 567 1;
#X msg 362 516 set \$1;
#X msg 362 568 0;
#X connect 0 0 1 0;
#X connect 2 0 10 0;
#X connect 3 0 18 0;
#X connect 3 0 46 0;
#X connect 4 0 3 0;
#X connect 5 0 20 0;
#X connect 6 0 23 0;
#X connect 7 0 27 0;
#X connect 8 0 30 0;
#X connect 9 0 10 0;
#X connect 9 0 57 0;
#X connect 10 1 0 0;
#X connect 11 0 12 0;
#X connect 11 1 13 0;
#X connect 11 2 14 0;
#X connect 18 0 19 0;
#X connect 19 0 33 0;
#X connect 20 0 21 0;
#X connect 20 0 47 0;
#X connect 21 0 22 0;
#X connect 22 0 35 0;
#X connect 23 0 24 0;
#X connect 23 0 48 0;
#X connect 24 0 25 0;
#X connect 25 0 37 0;
#X connect 26 0 19 0;
#X connect 26 0 22 0;
#X connect 26 0 25 0;
#X connect 26 0 29 0;
#X connect 26 0 32 0;
#X connect 27 0 28 0;
#X connect 27 0 49 0;
#X connect 28 0 29 0;
#X connect 29 0 39 0;
#X connect 30 0 31 0;
#X connect 30 0 50 0;
#X connect 31 0 32 0;
#X connect 32 0 41 0;
#X connect 33 0 34 0;
#X connect 34 0 3 0;
#X connect 35 0 36 0;
#X connect 36 0 20 0;
#X connect 37 0 38 0;
#X connect 38 0 23 0;
#X connect 39 0 40 0;
#X connect 40 0 27 0;
#X connect 41 0 42 0;
#X connect 42 0 30 0;
#X connect 43 0 34 0;
#X connect 43 0 36 0;
#X connect 43 0 38 0;
#X connect 43 0 40 0;
#X connect 43 0 42 0;
#X connect 46 0 9 0;
#X connect 47 0 9 1;
#X connect 47 0 59 0;
#X connect 48 0 9 2;
#X connect 48 0 59 0;
#X connect 49 0 9 3;
#X connect 49 0 59 0;
#X connect 50 0 9 4;
#X connect 50 0 59 0;
#X connect 52 0 46 1;
#X connect 52 0 70 0;
#X connect 53 0 47 1;
#X connect 53 0 68 0;
#X connect 54 0 48 1;
#X connect 54 0 66 0;
#X connect 55 0 49 1;
#X connect 55 0 64 0;
#X connect 56 0 50 1;
#X connect 56 0 61 0;
#X connect 57 0 58 0;
#X connect 59 0 9 0;
#X connect 60 0 43 0;
#X connect 61 0 62 0;
#X connect 62 0 56 0;
#X connect 63 0 62 0;
#X connect 63 0 65 0;
#X connect 63 0 67 0;
#X connect 63 0 69 0;
#X connect 63 0 71 0;
#X connect 64 0 65 0;
#X connect 65 0 55 0;
#X connect 66 0 67 0;
#X connect 67 0 54 0;
#X connect 68 0 69 0;
#X connect 69 0 53 0;
#X connect 70 0 71 0;
#X connect 71 0 52 0;
